<svg width="512" height="512" viewBox="0 0 512 512" fill="none" xmlns="http://www.w3.org/2000/svg">
<path d="M256 512C397.385 512 512 397.385 512 256C512 114.615 397.385 0 256 0C114.615 0 0 114.615 0 256C0 397.385 114.615 512 256 512Z" fill="url(#paint0_linear_523_2)"/>
<g opacity="0.75">
<path d="M348.623 266.363L229.945 385.041C224.222 390.764 214.942 390.764 209.219 385.041L195.377 371.199C189.663 365.485 189.652 356.224 195.353 350.497L289.407 256L195.353 161.503C189.652 155.776 189.663 146.515 195.377 140.801L209.219 126.96C214.943 121.236 224.222 121.236 229.945 126.96L348.623 245.637C354.346 251.36 354.346 260.64 348.623 266.363Z" fill="white"/>
</g>
<defs>
<linearGradient id="paint0_linear_523_2" x1="74.98" y1="437.018" x2="437.018" y2="74.979" gradientUnits="userSpaceOnUse">
<stop stop-color="#529F04"/>
<stop offset="1" stop-color="#81D829"/>
</linearGradient>
</defs>
</svg>
