<svg width="494" height="493" viewBox="0 0 494 493" fill="none" xmlns="http://www.w3.org/2000/svg">
<g clip-path="url(#clip0)">
<path opacity="0.3" d="M464.423 333.213C418.683 440.992 296.844 501.37 191.184 485.083C173.992 482.433 126.857 474.538 85.1251 437.295C4.78925 365.598 -12.3912 223.63 52.4133 123.581C99.5796 50.7631 184.13 9.48513 264.469 11.5499C281.775 11.9947 348.095 14.7356 406.379 62.8313C414.94 69.8956 433.822 86.6823 450.839 113.313C490.797 175.848 494.232 262.973 464.423 333.213Z" fill="url(#paint0_linear)"/>
<g opacity="0.3">
<path opacity="0.3" d="M90.4635 139.063C90.2976 138.158 90.8962 137.29 91.7998 137.125C93.5555 136.802 95.3234 136.399 97.0543 135.926C97.9301 135.686 98.8336 136.194 99.0883 137.062C99.0913 137.072 99.0943 137.083 99.0975 137.093C99.3396 137.98 98.8172 138.895 97.9308 139.138C96.1089 139.636 94.2478 140.06 92.3996 140.4C91.5545 140.555 90.7413 140.041 90.5044 139.233C90.4878 139.178 90.4739 139.121 90.4635 139.063ZM105.322 133.044C106.971 132.339 108.606 131.557 110.182 130.719C110.993 130.288 112.001 130.596 112.432 131.408C112.862 132.224 112.555 133.228 111.743 133.659C110.085 134.541 108.364 135.365 106.628 136.106C105.783 136.467 104.806 136.074 104.445 135.228C104.419 135.167 104.397 135.105 104.378 135.042C104.144 134.244 104.538 133.379 105.322 133.044ZM117.604 126.082C119.052 125.031 120.471 123.903 121.823 122.731C122.518 122.129 123.568 122.204 124.17 122.899C124.77 123.594 124.696 124.645 124.002 125.247C122.578 126.482 121.083 127.67 119.559 128.776C118.815 129.317 117.775 129.151 117.235 128.407C117.12 128.249 117.037 128.076 116.985 127.899C116.793 127.242 117.019 126.507 117.604 126.082ZM128.023 116.546C129.201 115.196 130.333 113.778 131.389 112.334C131.932 111.592 132.973 111.43 133.714 111.973C134.455 112.517 134.616 113.558 134.074 114.3C132.962 115.821 131.77 117.313 130.531 118.735C129.927 119.427 128.876 119.499 128.184 118.895C127.936 118.678 127.768 118.405 127.682 118.111C127.527 117.584 127.636 116.991 128.023 116.546ZM136.059 104.925C136.906 103.35 137.697 101.717 138.409 100.071C138.775 99.2268 139.755 98.8396 140.598 99.2051C141.441 99.5708 141.828 100.551 141.462 101.395C140.712 103.127 139.879 104.845 138.989 106.502C138.554 107.312 137.545 107.615 136.736 107.179C136.328 106.96 136.049 106.595 135.928 106.183C135.809 105.777 135.844 105.326 136.059 104.925ZM141.326 91.8137C141.804 90.0883 142.214 88.3213 142.544 86.5609C142.714 85.6573 143.583 85.0622 144.486 85.2319C145.389 85.4015 145.984 86.2711 145.814 87.1752C145.467 89.0277 145.035 90.8881 144.532 92.7037C144.286 93.5895 143.37 94.1084 142.484 93.8628C141.909 93.7033 141.489 93.2601 141.332 92.7262C141.248 92.4384 141.239 92.1242 141.326 91.8137ZM128.459 31.3496C129.154 30.7487 130.205 30.8255 130.806 31.5217C132.035 32.9473 133.22 34.4464 134.325 35.9764C134.864 36.7216 134.697 37.7623 133.952 38.3009C133.208 38.8395 132.168 38.6723 131.63 37.9273C130.58 36.4744 129.455 35.0514 128.287 33.6977C128.127 33.512 128.015 33.3012 127.95 33.0801C127.772 32.4728 127.949 31.79 128.459 31.3496ZM143.556 77.869C143.638 76.0815 143.645 74.2687 143.574 72.4805C143.538 71.5616 144.252 70.7872 145.17 70.7507C146.089 70.7143 146.858 71.4302 146.898 72.3486C146.973 74.2315 146.966 76.1407 146.879 78.023C146.836 78.9414 146.058 79.6515 145.14 79.6089C144.412 79.5753 143.815 79.0781 143.621 78.4153C143.57 78.2429 143.547 78.059 143.556 77.869ZM136.943 43.1158C137.755 42.686 138.761 42.9966 139.191 43.8093C140.071 45.4743 140.89 47.1992 141.627 48.9358C141.991 49.7813 141.592 50.7594 140.746 51.1191C139.901 51.4785 138.924 51.0837 138.565 50.2375C137.864 48.587 137.085 46.9476 136.249 45.3656C136.196 45.2647 136.155 45.1607 136.124 45.0552C135.905 44.3113 136.232 43.4919 136.943 43.1158ZM142.616 63.778C142.297 62.018 141.898 60.2488 141.429 58.5189C141.188 57.6313 141.712 56.7171 142.599 56.4765C143.475 56.2391 144.376 56.7467 144.631 57.6134C144.634 57.6246 144.637 57.6361 144.64 57.6475C145.134 59.4684 145.554 61.3313 145.89 63.1834C146.053 64.0882 145.454 64.9546 144.549 65.1187C143.705 65.2721 142.894 64.758 142.657 63.9517C142.641 63.8954 142.627 63.8371 142.616 63.778Z" fill="url(#paint1_linear)"/>
<path opacity="0.3" d="M119.547 24.9595C119.64 25.2739 119.825 25.5648 120.1 25.7858C120.769 26.3237 121.436 26.8846 122.087 27.4526C122.778 28.0575 123.83 27.9867 124.434 27.2944C125.038 26.6022 124.968 25.5495 124.275 24.9454C123.592 24.3476 122.889 23.7578 122.186 23.1915C121.47 22.6154 120.422 22.7288 119.847 23.4451C119.492 23.8867 119.399 24.4542 119.547 24.9595Z" fill="url(#paint2_linear)"/>
</g>
<g opacity="0.3">
<path opacity="0.3" d="M70.7531 11.1174C70.9794 11.8883 71.7372 12.4026 72.5592 12.2978C73.4097 12.189 74.2772 12.0964 75.1367 12.0226C76.0523 11.9439 76.7305 11.1375 76.6521 10.2216C76.5731 9.3018 75.7673 8.62657 74.8524 8.70527C73.9475 8.78327 73.034 8.88064 72.1383 8.99491C71.2269 9.11129 70.5825 9.94499 70.6986 10.857C70.7097 10.9467 70.7285 11.0336 70.7531 11.1174Z" fill="url(#paint3_linear)"/>
<path opacity="0.3" d="M15.8753 90.4869C15.6596 89.5932 16.2091 88.6936 17.1027 88.4779C17.9957 88.2624 18.8925 88.8118 19.1096 89.706C19.5197 91.4076 20.009 93.1181 20.568 94.8098C20.8579 95.6775 20.3827 96.6244 19.5106 96.9132C18.6383 97.2017 17.6975 96.7281 17.4086 95.8553C17.1664 95.1223 16.9373 94.3883 16.7216 93.6534C16.4137 92.6049 16.1288 91.5396 15.8753 90.4869ZM21.5955 102.029C22.4203 101.625 23.4166 101.967 23.8203 102.793C24.5958 104.378 25.4461 105.948 26.3487 107.458C26.8222 108.245 26.5635 109.27 25.775 109.742C24.9869 110.213 23.9652 109.956 23.4939 109.167C22.5435 107.577 21.6479 105.925 20.8324 104.256C20.79 104.169 20.7559 104.081 20.7297 103.992C20.5055 103.228 20.8565 102.391 21.5955 102.029ZM14.3577 81.5434C14.1736 79.7004 14.0656 77.8242 14.0378 75.9668C14.0239 75.0476 14.7574 74.291 15.6763 74.2769C16.5947 74.2632 17.3493 74.9972 17.3646 75.9165C17.3909 77.6805 17.4931 79.4617 17.6683 81.2118C17.7595 82.1267 17.0928 82.9426 16.1783 83.0342C15.3697 83.115 14.6386 82.6017 14.4175 81.8487C14.3888 81.7508 14.3684 81.6487 14.3577 81.5434ZM28.9271 114.278C29.6434 113.702 30.6907 113.816 31.2655 114.534C32.368 115.908 33.5425 117.251 34.756 118.527C35.3904 119.193 35.3642 120.246 34.6985 120.88C34.0332 121.514 32.9808 121.489 32.3472 120.823C31.0692 119.48 29.8321 118.065 28.6713 116.618C28.5312 116.443 28.4315 116.249 28.372 116.046C28.1876 115.418 28.3856 114.713 28.9271 114.278ZM14.5244 66.9148C14.7498 65.0777 15.057 63.2244 15.4376 61.4062C15.6258 60.5063 16.5069 59.9299 17.406 60.1179C18.3058 60.3062 18.882 61.1886 18.6937 62.0885C18.3325 63.8156 18.0406 65.576 17.8267 67.3207C17.7146 68.2334 16.8845 68.8824 15.9726 68.7703C15.2931 68.6868 14.76 68.2044 14.5788 67.5867C14.5165 67.3749 14.4958 67.1472 14.5244 66.9148ZM17.8928 52.6775C18.5155 50.9298 19.2192 49.1881 19.9842 47.5007C20.3643 46.6634 21.3499 46.2926 22.1866 46.6724C23.0245 47.0531 23.3947 48.0394 23.0137 48.8763C22.2869 50.4798 21.6182 52.1349 21.0261 53.7957C20.7175 54.6618 19.7659 55.1135 18.9004 54.8046C18.3791 54.6183 18.0081 54.1984 17.8631 53.7047C17.7677 53.3788 17.7704 53.0212 17.8928 52.6775ZM24.2819 39.5125C25.2707 37.9412 26.3369 36.3941 27.4501 34.9145C28.0031 34.18 29.0457 34.0333 29.7797 34.5862C30.5146 35.1399 30.6603 36.1833 30.1078 36.9174C29.0496 38.3231 28.037 39.793 27.0973 41.2866C26.6079 42.0646 25.5805 42.2981 24.8034 41.8081C24.4461 41.5831 24.204 41.2448 24.0937 40.8693C23.964 40.4272 24.0173 39.9333 24.2819 39.5125ZM33.3884 28.056C34.6964 26.7392 36.0759 25.463 37.4885 24.2633C38.189 23.6683 39.2388 23.7541 39.8333 24.4554C40.4269 25.1551 40.3414 26.2068 39.641 26.8017C38.2998 27.9409 36.9901 29.1524 35.7476 30.4036C35.1 31.0556 34.047 31.0588 33.3955 30.4106C33.1896 30.2059 33.0487 29.9609 32.9723 29.7007C32.8069 29.1369 32.9452 28.5025 33.3884 28.056ZM44.7939 18.8774C46.3559 17.8839 47.9811 16.9442 49.6249 16.0839C50.4392 15.6578 51.4447 15.9728 51.8701 16.7878C52.2941 17.6002 51.9811 18.6082 51.1668 19.0343C49.6052 19.8513 48.0617 20.744 46.5778 21.6875C45.8028 22.1807 44.7744 21.9513 44.2819 21.1755C44.1961 21.0405 44.1319 20.8977 44.0889 20.7514C43.8854 20.0575 44.1535 19.2847 44.7939 18.8774ZM57.9212 12.4357C59.2038 11.9717 60.5168 11.5418 61.823 11.1578C62.2961 11.0187 62.7691 10.8854 63.2429 10.7572C64.1294 10.5176 65.057 11.0266 65.2824 11.93C65.5225 12.8174 64.9979 13.7314 64.1106 13.9715C63.6607 14.0934 63.2103 14.22 62.7608 14.3522C61.5188 14.7174 60.2714 15.1257 59.0516 15.5668C58.1877 15.8793 57.2342 15.4314 56.922 14.5668C56.9104 14.5343 56.8995 14.5017 56.8898 14.469C56.6439 13.6312 57.0895 12.7361 57.9212 12.4357Z" fill="url(#paint4_linear)"/>
<path opacity="0.3" d="M38.5106 126.144C38.6039 126.461 38.7919 126.754 39.0697 126.975C39.7744 127.537 40.504 128.094 41.2387 128.631C41.9805 129.174 43.0214 129.012 43.5632 128.27C44.1051 127.527 43.9445 126.486 43.202 125.943C42.5043 125.433 41.8111 124.904 41.142 124.371C40.424 123.798 39.3771 123.917 38.8048 124.636C38.4543 125.077 38.3632 125.641 38.5106 126.144Z" fill="url(#paint5_linear)"/>
</g>
<path d="M66.8507 122.955C67.1565 123.084 67.5101 123.005 67.7314 122.757L74.0474 115.706C78.4038 116.448 82.91 116.5 87.4019 115.79L93.6286 122.913C93.8472 123.163 94.1999 123.246 94.5071 123.121L105.019 118.837C105.327 118.712 105.521 118.406 105.503 118.074L104.986 108.625C108.696 105.992 111.884 102.805 114.483 99.228L123.925 99.8587C124.255 99.8807 124.564 99.6902 124.693 99.3843L129.1 88.916C129.228 88.6102 129.149 88.2559 128.902 88.0346L121.855 81.7142C122.597 77.3545 122.649 72.8449 121.94 68.3495L129.057 62.1179C129.307 61.8993 129.391 61.5464 129.265 61.239L124.985 50.7185C124.859 50.4111 124.553 50.2171 124.222 50.2352L114.779 50.7522C112.149 47.0395 108.964 43.8493 105.389 41.2484L106.02 31.7995C106.042 31.4683 105.851 31.1595 105.546 31.0308L95.0854 26.6209C94.7798 26.492 94.426 26.5716 94.2048 26.8184L87.8889 33.8706C83.5325 33.1281 79.0265 33.076 74.5342 33.7859L68.3073 26.6633C68.089 26.4135 67.7362 26.3297 67.429 26.4549L56.9167 30.7387C56.6095 30.8639 56.4155 31.1702 56.4336 31.5018L56.95 40.9515C53.2403 43.584 50.0522 46.7717 47.4533 50.3483L38.0116 49.7176C37.6806 49.6954 37.3722 49.8857 37.2433 50.1919L32.8366 60.6601C32.7079 60.9659 32.7872 61.3198 33.0342 61.5415L40.081 67.8621C39.3392 72.2218 39.287 76.7312 39.9962 81.2268L32.8789 87.4581C32.6294 87.6766 32.5458 88.0297 32.6707 88.3371L36.9515 98.8574C37.0766 99.1648 37.3828 99.359 37.7141 99.3408L47.1566 98.8241C49.7871 102.537 52.9725 105.727 56.5466 108.328L55.9163 117.777C55.8942 118.108 56.0847 118.417 56.3903 118.545L66.8507 122.955Z" fill="url(#paint6_linear)"/>
<path opacity="0.56" d="M69.6696 76.3748C68.7955 70.1401 73.1523 64.3562 79.3829 63.4811C82.401 63.0569 85.4034 63.8348 87.8366 65.6709C90.2699 67.5063 91.8439 70.1806 92.2668 73.2015C93.1409 79.4362 88.7841 85.2201 82.5535 86.0954C76.8854 86.8912 71.5905 83.3543 70.0229 78.0141C69.8673 77.4844 69.7486 76.9368 69.6696 76.3748ZM86.2342 67.7977C84.3681 66.39 82.0665 65.7938 79.7522 66.1187C74.9759 66.7895 71.6346 71.2246 72.3051 76.0045C72.9741 80.7865 77.4072 84.1281 82.184 83.4575C86.9603 82.7866 90.3016 78.3516 89.631 73.5716C89.5702 73.1381 89.4783 72.7146 89.3573 72.3023C88.8318 70.5113 87.7506 68.9418 86.2342 67.7977Z" fill="white"/>
<path opacity="0.56" d="M54.1463 82.4383C54.4154 83.3555 54.7325 84.2644 55.0974 85.1618C55.2121 85.4442 55.3317 85.7249 55.4556 86.0038C56.0668 87.3779 56.7864 88.701 57.6031 89.9531C57.6142 89.9702 57.6253 89.9872 57.6364 90.0043C57.6682 90.0526 57.6999 90.1008 57.7324 90.1489C57.7946 90.2427 57.8579 90.336 57.9211 90.429C58.0877 90.6734 58.388 90.772 58.6575 90.6931C58.723 90.6739 58.7867 90.644 58.846 90.6035C59.1495 90.3962 59.2264 89.982 59.02 89.6782C57.9536 88.1154 57.0489 86.4269 56.3304 84.6598C52.7576 75.8836 54.2003 66.2908 59.3082 59.0793C62.1487 55.0677 66.1239 51.7931 71.0021 49.8056C71.8573 49.4568 72.724 49.154 73.5982 48.8973C79.4813 47.1683 85.7276 47.5139 91.4542 49.9283C98.0325 52.7015 103.138 57.8723 105.83 64.4879C111.388 78.1517 104.805 93.781 91.1581 99.3419C90.3168 99.6849 89.461 99.9839 88.595 100.238C84.8422 101.341 80.8901 101.609 77.0212 101.011C76.9212 100.996 76.8232 101.003 76.7323 101.03C76.4928 101.101 76.3026 101.304 76.2621 101.567C76.2071 101.931 76.4539 102.271 76.8183 102.327C80.88 102.956 85.0296 102.674 88.9694 101.516C89.8785 101.249 90.7765 100.935 91.6597 100.576C105.987 94.7375 112.895 78.319 107.063 63.9859C104.237 57.0404 98.8768 51.6125 91.971 48.7011C85.9591 46.1662 79.4016 45.8035 73.2254 47.6183C72.3077 47.888 71.3979 48.206 70.5003 48.5717C63.5596 51.4001 58.1354 56.7638 55.2262 63.6746C52.693 69.6924 52.3316 76.2565 54.1463 82.4383Z" fill="white"/>
<g opacity="0.3">
<path opacity="0.3" d="M64.4447 206.106C64.57 206.533 64.9635 206.844 65.4308 206.844C66.303 206.844 67.1873 206.817 68.0587 206.764C68.6249 206.73 69.0561 206.243 69.0225 205.676C68.9907 205.108 68.5014 204.678 67.9352 204.712C67.1049 204.762 66.2622 204.787 65.4298 204.787C64.8629 204.787 64.4032 205.248 64.4025 205.816C64.4028 205.917 64.4176 206.014 64.4447 206.106Z" fill="url(#paint7_linear)"/>
<path opacity="0.3" d="M72.29 205.275C72.1867 204.717 72.5542 204.18 73.1125 204.077C74.5204 203.814 75.9312 203.476 77.305 203.072C77.5947 202.987 77.8845 202.898 78.1743 202.806C78.7149 202.635 79.2924 202.935 79.4637 203.476C79.6054 203.995 79.3351 204.595 78.7939 204.767C78.4906 204.863 78.1873 204.956 77.8842 205.045C76.4441 205.469 74.9648 205.823 73.4883 206.098C72.9659 206.196 72.4617 205.878 72.3149 205.378C72.3051 205.345 72.2972 205.31 72.29 205.275ZM83.0434 200.929C84.6227 200.207 86.1716 199.381 87.6462 198.472C88.1299 198.175 88.7617 198.325 89.0595 198.809C89.3546 199.291 89.2066 199.926 88.723 200.224C87.1775 201.176 85.5537 202.042 83.8978 202.799C83.3816 203.035 82.772 202.808 82.5357 202.291C82.5151 202.246 82.4982 202.199 82.4846 202.153C82.3428 201.67 82.5733 201.144 83.0434 200.929ZM91.9112 195.463C93.2634 194.378 94.5615 193.195 95.7704 191.949C96.1654 191.542 96.8162 191.532 97.223 191.927C97.6312 192.324 97.6408 192.973 97.245 193.381C95.9775 194.688 94.615 195.929 93.1976 197.067C92.755 197.422 92.1079 197.352 91.753 196.909C91.667 196.801 91.6054 196.681 91.5688 196.556C91.455 196.168 91.5771 195.732 91.9112 195.463ZM99.1661 187.984C100.213 186.598 101.183 185.133 102.048 183.633C102.332 183.14 102.96 182.972 103.451 183.256C103.941 183.54 104.111 184.168 103.828 184.66C102.92 186.234 101.904 187.769 100.806 189.224C100.464 189.677 99.819 189.767 99.3663 189.424C99.1844 189.286 99.0605 189.099 99.0005 188.895C98.9118 188.593 98.962 188.254 99.1661 187.984ZM104.377 178.959C105.054 177.36 105.639 175.704 106.116 174.037C106.272 173.492 106.841 173.176 107.387 173.332C107.932 173.488 108.249 174.057 108.092 174.604C107.592 176.351 106.979 178.086 106.269 179.762C106.047 180.285 105.444 180.529 104.922 180.307C104.627 180.182 104.421 179.935 104.337 179.65C104.272 179.43 104.28 179.187 104.377 178.959ZM107.24 168.942C107.508 167.227 107.672 165.481 107.726 163.749C107.744 163.182 108.219 162.736 108.785 162.753C109.352 162.772 109.797 163.244 109.781 163.814C109.724 165.629 109.552 167.462 109.27 169.26C109.182 169.821 108.656 170.205 108.096 170.117C107.691 170.053 107.378 169.76 107.269 169.39C107.227 169.249 107.215 169.097 107.24 168.942ZM107.568 158.532C107.408 156.81 107.138 155.074 106.765 153.374C106.644 152.82 106.994 152.271 107.549 152.15C108.102 152.027 108.642 152.38 108.773 152.933C109.164 154.716 109.447 156.535 109.614 158.342C109.666 158.907 109.251 159.408 108.686 159.461C108.189 159.507 107.741 159.19 107.606 158.728C107.587 158.665 107.574 158.6 107.568 158.532ZM103.763 142.165C104.271 141.912 104.887 142.119 105.14 142.628C105.84 144.035 106.474 145.505 107.025 146.993C107.11 147.219 107.191 147.444 107.271 147.671C107.474 148.198 107.178 148.794 106.641 148.982C106.106 149.17 105.52 148.888 105.331 148.352C105.257 148.14 105.18 147.927 105.099 147.712C104.573 146.288 103.968 144.886 103.3 143.543C103.273 143.488 103.251 143.431 103.234 143.374C103.096 142.905 103.31 142.39 103.763 142.165Z" fill="url(#paint8_linear)"/>
</g>
<g opacity="0.3">
<path opacity="0.3" d="M22.6684 174.348C22.1858 172.622 21.8052 170.852 21.5348 169.086C21.4496 168.525 21.8341 168 22.3955 167.914C22.9569 167.828 23.4763 168.219 23.5666 168.776C23.8236 170.459 24.1874 172.148 24.6477 173.794C24.801 174.341 24.4813 174.908 23.9351 175.061C23.3931 175.213 22.8306 174.9 22.6724 174.361C22.671 174.357 22.6696 174.352 22.6684 174.348ZM24.9834 178.094C25.5073 177.877 26.1085 178.126 26.3253 178.651C26.9789 180.229 27.7342 181.783 28.5714 183.271C28.8467 183.763 28.6748 184.393 28.1794 184.671C27.685 184.95 27.0593 184.775 26.7803 184.28C25.9032 182.721 25.1113 181.092 24.4271 179.438C24.4127 179.403 24.4003 179.369 24.3898 179.333C24.2441 178.836 24.4931 178.298 24.9834 178.094ZM21.0485 163.722C20.9971 161.929 21.0545 160.119 21.2193 158.34C21.2719 157.775 21.773 157.359 22.3374 157.411C22.9027 157.463 23.3162 157.963 23.266 158.53C23.1084 160.227 23.0537 161.953 23.1019 163.663C23.1181 164.231 22.6712 164.704 22.105 164.72C21.628 164.734 21.2179 164.42 21.0895 163.983C21.0652 163.9 21.0511 163.812 21.0485 163.722ZM29.922 187.365C30.3784 187.028 31.0218 187.126 31.3588 187.582C32.372 188.957 33.4796 190.282 34.6518 191.522C35.0407 191.935 35.0227 192.586 34.6121 192.975C34.1995 193.365 33.5492 193.348 33.1592 192.935C31.9295 191.635 30.7673 190.245 29.7051 188.803C29.6319 188.703 29.5791 188.595 29.5462 188.483C29.428 188.08 29.5654 187.629 29.922 187.365ZM22.0426 153.023C22.4226 151.275 22.9136 149.532 23.502 147.841C23.6887 147.305 24.2747 147.022 24.8106 147.208C25.3465 147.395 25.6305 147.981 25.443 148.518C24.8808 150.13 24.413 151.792 24.0513 153.46C23.9306 154.014 23.3836 154.367 22.8283 154.246C22.4485 154.163 22.1634 153.879 22.0609 153.53C22.0141 153.371 22.0047 153.197 22.0426 153.023ZM25.5728 142.873C26.3617 141.264 27.2555 139.688 28.2284 138.19C28.5374 137.714 29.1732 137.579 29.649 137.889C30.1244 138.197 30.2602 138.834 29.9505 139.311C29.023 140.74 28.1707 142.243 27.4179 143.779C27.1681 144.289 26.5523 144.499 26.0427 144.249C25.7737 144.117 25.5879 143.882 25.5093 143.615C25.4394 143.377 25.4551 143.113 25.5728 142.873ZM31.4302 133.861C32.5817 132.486 33.8279 131.17 35.1327 129.951C35.5479 129.563 36.1977 129.585 36.5851 130C36.9725 130.415 36.9493 131.066 36.5358 131.453C35.2909 132.616 34.1029 133.871 33.0059 135.182C32.6412 135.617 31.9929 135.674 31.5583 135.309C31.3964 135.174 31.2877 135 31.2326 134.812C31.139 134.493 31.2011 134.135 31.4302 133.861Z" fill="url(#paint9_linear)"/>
<path opacity="0.3" d="M36.7953 196.145C36.8513 196.335 36.9625 196.511 37.1268 196.647C37.8049 197.207 38.5026 197.75 39.2004 198.261C39.6586 198.595 40.3016 198.496 40.6366 198.037C40.9695 197.579 40.8706 196.936 40.4134 196.6C39.7476 196.113 39.082 195.595 38.4347 195.061C37.9972 194.699 37.3492 194.762 36.9883 195.199C36.7635 195.473 36.7024 195.828 36.7953 196.145Z" fill="url(#paint10_linear)"/>
</g>
<path d="M56.289 194.532C56.4937 194.618 56.7303 194.565 56.8784 194.399L61.1047 189.68C64.0199 190.177 67.0351 190.212 70.0411 189.737L74.2079 194.503C74.3541 194.67 74.59 194.726 74.7957 194.643L81.83 191.776C82.0356 191.692 82.1655 191.487 82.1533 191.266L81.8076 184.942C84.2901 183.181 86.4232 181.048 88.1624 178.654L94.4804 179.076C94.7019 179.091 94.9083 178.963 94.9945 178.759L97.9431 171.754C98.0293 171.549 97.9762 171.312 97.8108 171.164L93.0956 166.935C93.5919 164.018 93.6269 161 93.1523 157.992L97.915 153.822C98.0819 153.676 98.1379 153.44 98.0543 153.234L95.1898 146.194C95.1061 145.988 94.9011 145.859 94.6796 145.871L88.3609 146.217C86.6006 143.732 84.4692 141.597 82.0777 139.857L82.4994 133.534C82.5142 133.313 82.3868 133.106 82.1824 133.02L75.1828 130.069C74.9783 129.983 74.7417 130.036 74.5935 130.201L70.3671 134.92C67.4519 134.423 64.4368 134.388 61.4307 134.863L57.2639 130.097C57.1179 129.93 56.8818 129.874 56.6763 129.957L49.6417 132.824C49.4362 132.908 49.3063 133.113 49.3185 133.335L49.6642 139.658C47.1817 141.419 45.0486 143.553 43.3094 145.946L36.9914 145.524C36.77 145.509 36.5635 145.637 36.4773 145.841L33.5287 152.846C33.4425 153.051 33.4956 153.288 33.6608 153.436L38.3762 157.665C37.8799 160.583 37.8449 163.6 38.3195 166.608L33.5568 170.778C33.3899 170.924 33.3339 171.16 33.4175 171.366L36.282 178.406C36.3657 178.612 36.5705 178.741 36.7922 178.729L43.1108 178.384C44.871 180.868 47.0026 183.003 49.3941 184.743L48.9724 191.066C48.9576 191.287 49.085 191.494 49.2894 191.58L56.289 194.532Z" fill="url(#paint11_linear)"/>
<path opacity="0.56" d="M58.0398 163.382C57.7506 161.324 58.2802 159.277 59.5302 157.618C60.7792 155.959 62.5999 154.887 64.6559 154.598C68.8992 154.002 72.8289 156.968 73.4327 161.22C74.0272 165.467 71.0591 169.406 66.8164 170.002C64.7606 170.291 62.7154 169.761 61.0579 168.51C59.7106 167.494 58.7501 166.1 58.283 164.508C58.1755 164.143 58.094 163.766 58.0398 163.382ZM64.942 156.635C63.4292 156.847 62.0903 157.636 61.1707 158.856C60.2519 160.076 59.8626 161.582 60.0746 163.095C60.2887 164.608 61.0753 165.948 62.2951 166.869C63.5137 167.789 65.0189 168.178 66.5304 167.966C69.6519 167.527 71.835 164.63 71.3979 161.506C71.358 161.224 71.2985 160.95 71.2206 160.684C70.435 158.008 67.7811 156.236 64.942 156.635Z" fill="white"/>
<path opacity="0.56" d="M47.2359 167.603C47.4192 168.227 47.6356 168.846 47.8853 169.462C48.3818 170.683 49.003 171.855 49.7337 172.948C49.7669 172.997 49.8 173.046 49.8333 173.095C50.0905 173.472 50.5544 173.624 50.9705 173.502C51.0715 173.472 51.1699 173.426 51.2614 173.364C51.7301 173.044 51.8478 172.404 51.5302 171.935C50.8382 170.921 50.2529 169.828 49.7891 168.687L49.7889 168.686C49.7632 168.624 49.7384 168.56 49.7138 168.498C48.6406 165.786 48.2834 162.91 48.6267 160.09C48.8132 158.559 49.2071 157.043 49.8076 155.58C49.8125 155.568 49.8173 155.556 49.8222 155.544C49.8377 155.508 49.8521 155.472 49.8677 155.436C51.662 151.174 55.0068 147.866 59.2865 146.123C59.8402 145.897 60.4009 145.701 60.9669 145.534C64.7755 144.415 68.8192 144.639 72.5273 146.202C76.7858 147.997 80.0901 151.345 81.8326 155.628C83.5725 159.908 83.547 164.616 81.7538 168.878C79.9595 173.139 76.6147 176.447 72.335 178.191C71.7906 178.413 71.2366 178.607 70.6762 178.771C68.2463 179.485 65.6881 179.659 63.1838 179.271C63.0293 179.248 62.878 179.259 62.7376 179.301C62.368 179.41 62.0741 179.724 62.0117 180.13C61.9265 180.692 62.3087 181.217 62.8706 181.304C65.6728 181.737 68.5357 181.543 71.2535 180.745C71.8811 180.56 72.5005 180.344 73.1097 180.096C77.8984 178.144 81.6403 174.444 83.6476 169.676C85.654 164.908 85.6901 159.645 83.7363 154.852C81.7869 150.06 78.0896 146.315 73.3245 144.307C69.1769 142.558 64.6527 142.308 60.3918 143.56C59.7593 143.746 59.1314 143.965 58.5121 144.217C49.2418 147.996 44.4731 158.191 47.2359 167.603Z" fill="white"/>
<path d="M105.22 25.6661C103.232 105.896 96.7865 361.014 99.8636 459.083C100.19 469.473 108.512 477.812 118.893 478.152C170.24 479.833 317.95 484.095 401.935 480.569C419.428 479.835 433.339 465.655 433.702 448.137C435.447 363.926 439.298 148.695 430.146 40.1921C429.049 27.1917 418.853 16.8391 405.881 15.5404C349.962 9.94237 201.443 -3.74173 128.885 0.970293C115.799 1.82001 105.545 12.5468 105.22 25.6661Z" fill="url(#paint12_linear)"/>
<path d="M126.083 51.2273C123.279 118.847 114.433 322.179 117.241 405.363C117.651 417.521 126.956 427.352 138.749 428.063C187.303 430.989 311.841 437.442 383.059 431.569C395.882 430.511 405.946 419.83 406.638 406.6C410.247 337.613 420.609 149.772 417.918 67.5207C417.489 54.3994 407.619 43.6833 394.922 42.5093C342.394 37.6522 207.484 26.0952 146.965 29.4958C135.605 30.1339 126.569 39.5206 126.083 51.2273Z" fill="url(#paint13_linear)"/>
<path opacity="0.5" d="M232.117 14.9891C232.117 17.4509 234.034 19.4812 236.491 19.6099C248.619 20.2455 282.783 22.0439 298.051 22.9305C301.061 23.1051 303.424 20.3971 302.853 17.4339L302.756 16.9284C302.366 14.9065 300.69 13.3846 298.641 13.1967C288.321 12.2503 257.179 9.62615 236.545 10.3632C234.067 10.4521 232.117 12.5072 232.117 14.9891Z" fill="white"/>
<path d="M300.57 466.392H216.362C214.895 466.392 213.706 465.202 213.706 463.734V445.109C213.706 443.641 214.895 442.451 216.362 442.451H300.57C302.037 442.451 303.226 443.641 303.226 445.109V463.734C303.227 465.202 302.037 466.392 300.57 466.392Z" fill="url(#paint14_linear)"/>
<path d="M156.1 236.587L148.603 54.1613C148.344 50.4499 151.14 47.2283 154.849 46.9834C167.981 46.1168 201.687 46.9408 266.732 66.0954L272.962 233.81L156.1 236.587Z" fill="url(#paint15_linear)"/>
<path d="M167.102 236.963L159.028 44.1068C158.822 41.085 161.219 38.5274 164.246 38.5304C182.508 38.5491 240.707 40.6759 266.732 66.0955L272.962 233.81L167.102 236.963Z" fill="url(#paint16_linear)"/>
<path opacity="0.69" d="M173.64 234.332C171.249 234.25 169.309 232.371 169.148 229.983L161.935 46.9145C161.738 43.9835 164.039 41.5014 166.944 41.5033C184.132 41.5148 238.183 43.4796 263.811 66.8059C264.749 67.6594 265.313 68.8486 265.359 70.1165L271.026 225.892C271.125 228.596 268.911 230.816 266.209 230.724L173.64 234.332Z" fill="white"/>
<path d="M170.077 54.3293L177.513 155.184C177.788 158.923 180.854 161.844 184.599 161.935L252.827 163.595C256.977 163.696 260.373 160.31 260.286 156.156L258.538 72.1914C258.481 69.4533 256.9 66.9786 254.437 65.7857C243.21 60.3497 210.127 45.8785 177.227 46.499C173.039 46.5781 169.768 50.1485 170.077 54.3293Z" fill="url(#paint17_linear)"/>
<path d="M179.292 177.252L179.753 179.825C180.042 181.443 181.424 182.637 183.066 182.689L255.232 184.97C257.348 185.037 259.032 183.211 258.797 181.106L258.367 177.672C258.174 175.937 256.779 174.672 255.036 174.636L182.786 173.16C180.592 173.115 178.906 175.091 179.292 177.252Z" fill="url(#paint18_linear)"/>
<path d="M180.619 196.039L180.838 199.506C180.954 201.348 182.487 202.778 184.331 202.766L254.926 202.302C256.967 202.289 258.557 200.527 258.365 198.494L258.311 198.437C258.147 196.707 256.786 195.42 255.05 195.346L184.236 192.343C182.173 192.256 180.489 193.977 180.619 196.039Z" fill="url(#paint19_linear)"/>
<path d="M181.14 215.406L181.485 218.393C181.627 219.622 182.663 220.551 183.899 220.557L258.35 220.908C259.929 220.916 261.1 219.444 260.738 217.906L259.509 212.673C259.247 211.556 258.244 210.773 257.097 210.789L184.275 211.836C182.38 211.863 180.923 213.522 181.14 215.406Z" fill="url(#paint20_linear)"/>
<path d="M270.498 65.7234C270.498 65.7234 320.881 31.3988 384.263 50.5224C388.056 51.6667 390.637 55.1889 390.61 59.1527L389.383 237.79L272.962 233.81L270.498 65.7234Z" fill="url(#paint21_linear)"/>
<path d="M380.525 48.704L381.743 237.529L272.962 233.81L266.732 66.0954C266.732 66.0954 319.992 32.1598 371.53 38.4917C376.66 39.122 380.491 43.5317 380.525 48.704Z" fill="url(#paint22_linear)"/>
<path opacity="0.69" d="M378.673 51.6002L379.818 229.146C379.838 232.127 377.374 234.525 374.398 234.423L279.557 231.18C276.664 231.081 274.339 228.762 274.232 225.867L268.385 68.456C268.385 68.456 320.004 35.5655 369.955 41.7025C374.927 42.3133 378.64 46.5873 378.673 51.6002Z" fill="white"/>
<path d="M289.567 68.1812C284.095 69.6368 280.398 74.7231 280.698 80.3808C281.927 103.499 285.037 161.444 286.326 180.207C286.559 183.603 289.381 186.231 292.782 186.228L363.164 186.162C367.305 186.158 370.658 182.791 370.647 178.646L370.329 59.5797C370.319 55.7569 367.318 52.6138 363.501 52.4414C352.175 51.9305 308.869 63.0462 289.567 68.1812Z" fill="url(#paint23_linear)"/>
<path d="M289.579 198.358L366.555 200.99C368.395 201.052 369.835 202.596 369.772 204.437L369.77 204.481C369.708 206.322 368.165 207.764 366.326 207.701L289.35 205.069C287.511 205.006 286.07 203.463 286.133 201.622L286.135 201.577C286.198 199.737 287.74 198.295 289.579 198.358Z" fill="url(#paint24_linear)"/>
<path d="M285.543 216.929L285.552 219.013C285.559 220.802 286.975 222.267 288.762 222.332L365.794 225.166C367.687 225.236 369.257 223.715 369.249 221.82C369.242 220.065 367.879 218.616 366.129 218.504L289.088 213.587C287.163 213.464 285.536 214.998 285.543 216.929Z" fill="url(#paint25_linear)"/>
<path d="M155.699 299.491C155.699 299.491 121.96 303.348 111.047 291.566C110.561 291.042 111.113 290.342 111.996 290.342H118.41C119.942 290.342 120.732 289.043 119.681 288.249C116.321 285.712 111.216 281.174 110.153 276.362C109.869 275.079 111.67 274.077 113.325 274.628C122.196 277.58 147.057 285.309 163.343 285.013L155.699 299.491Z" fill="url(#paint26_linear)"/>
<path d="M155.69 312L371.485 319.366C379.827 319.65 386.745 312.96 386.745 304.607V287.395C386.745 279.239 380.138 272.628 371.988 272.628H160.639C155.683 272.628 151.294 274.876 149.691 278.212C146.686 284.466 142.937 295.099 145.543 305.541C146.432 309.101 150.617 311.774 155.69 312Z" fill="url(#paint27_linear)"/>
<path d="M311.406 311.127L360.831 312.728C364.928 312.861 368.351 310.534 368.351 307.617V283.744C368.351 280.918 365.131 278.628 361.159 278.628H311.733C307.761 278.628 304.541 280.918 304.541 283.744V306.016C304.541 308.751 307.565 311.002 311.406 311.127Z" fill="url(#paint28_linear)"/>
<path d="M376.541 248.678C376.541 241.385 370.634 235.473 363.346 235.473H164.592C160.504 235.473 156.863 237.361 155.669 240.142C150.324 252.584 153.317 263.407 155.799 269.088C156.899 271.605 160.16 273.324 163.867 273.324H363.346C370.634 273.324 376.542 267.412 376.542 260.119V248.678H376.541Z" fill="url(#paint29_linear)"/>
<path d="M167.329 269.579L191.516 268.66C194.53 268.546 196.891 266.774 196.891 264.627V244.359C196.891 242.179 194.46 240.393 191.398 240.322L167.532 239.771C164.796 239.708 162.378 241.038 161.801 242.941C160.309 247.865 158.252 257.551 161.511 266.516C162.193 268.392 164.609 269.682 167.329 269.579Z" fill="url(#paint30_linear)"/>
<path d="M207.315 268.004C210.292 267.857 212.602 266.097 212.602 263.974V244.57C212.602 242.308 209.989 240.487 206.809 240.532C203.719 240.576 201.245 242.371 201.245 244.57V263.975C201.245 266.315 204.033 268.165 207.315 268.004Z" fill="url(#paint31_linear)"/>
<path d="M165.696 420.064L364.029 421.471C371.353 421.522 377.318 415.595 377.318 408.266V367.511C377.318 360.092 371.212 354.129 363.801 354.31L170.048 359.04C165.454 359.186 161.452 361.297 159.904 364.377C155.684 372.776 149.497 391.067 158.19 415.835C159.053 418.292 162.136 420.032 165.696 420.064Z" fill="url(#paint32_linear)"/>
<path d="M169.167 359.609L363.488 355.212C370.657 355.05 376.385 349.187 376.385 342.011V327.905C376.385 320.687 370.593 314.806 363.381 314.702L167.388 311.856C162.966 311.773 158.964 313.783 157.692 316.797C152.198 329.813 151.659 342.742 159.865 355.517C161.522 358.097 165.183 359.727 169.167 359.609Z" fill="url(#paint33_linear)"/>
<path opacity="0.57" d="M175.139 355.964L183.79 355.487C186.41 355.343 188.387 353.733 188.234 351.866L185.559 319.161C185.418 317.444 183.513 316.066 181.102 315.938L175.126 315.62C172.327 315.471 169.941 317.046 169.941 319.042V352.542C169.941 354.542 172.336 356.118 175.139 355.964Z" fill="white"/>
<path opacity="0.57" d="M195.812 354.614H198.97C201.408 354.614 203.355 353.17 203.253 351.437L201.417 320.108C201.321 318.474 199.431 317.185 197.133 317.185H193.783C191.338 317.185 189.388 318.637 189.5 320.375L191.529 351.704C191.634 353.332 193.521 354.614 195.812 354.614Z" fill="white"/>
<path d="M245.699 415.791L289.894 418.23C293.558 418.432 296.618 414.888 296.618 410.444V374.073C296.618 369.768 293.739 366.279 290.187 366.279H245.991C242.439 366.279 239.56 369.768 239.56 374.073V408.005C239.56 412.171 242.264 415.601 245.699 415.791Z" fill="url(#paint34_linear)"/>
<path d="M313.914 356.721H303.891V420.913H313.914V356.721Z" fill="url(#paint35_linear)"/>
<path d="M189.587 260.328L22.0524 370.426C15.0257 375.043 13.4193 384.672 18.5652 391.324L19.4101 392.416C23.9634 398.301 32.4336 399.352 38.2848 394.758L196.811 270.285L189.587 260.328Z" fill="url(#paint36_linear)"/>
<path opacity="0.5" d="M285.337 289.176C335.309 277.362 366.422 227.976 354.83 178.869C343.238 129.761 293.33 99.529 243.358 111.343C193.386 123.157 162.273 172.543 173.865 221.65C185.457 270.757 235.364 300.989 285.337 289.176Z" fill="white"/>
<path d="M240.999 101.309C185.393 114.456 150.773 169.411 163.673 224.054C176.573 278.698 232.108 312.338 287.714 299.191C343.32 286.044 377.94 231.09 365.04 176.446C352.141 121.802 296.605 88.1621 240.999 101.309ZM284.283 284.657C236.845 295.872 189.468 267.174 178.463 220.557C167.458 173.941 196.993 127.058 244.43 115.843C291.868 104.627 339.246 133.326 350.25 179.942C361.255 226.559 331.721 273.441 284.283 284.657Z" fill="url(#paint37_linear)"/>
<path d="M174.062 234.122C173.942 234.122 173.828 234.048 173.783 233.928C172.935 231.666 172.164 229.339 171.492 227.011C171.447 226.853 171.538 226.688 171.696 226.642C171.854 226.597 172.018 226.688 172.064 226.846C172.732 229.159 173.498 231.471 174.341 233.719C174.398 233.873 174.32 234.045 174.166 234.102C174.132 234.116 174.097 234.122 174.062 234.122ZM168.221 206.292C168.064 206.292 167.933 206.17 167.924 206.011C167.564 199.407 167.912 192.744 168.96 186.208C171.925 167.698 180.301 150.535 193.181 136.574C206.368 122.28 223.435 112.337 242.537 107.821C260.501 103.573 279.144 104.439 296.45 110.323C296.606 110.376 296.689 110.546 296.637 110.701C296.584 110.857 296.415 110.94 296.259 110.887C279.059 105.038 260.53 104.179 242.673 108.401C223.688 112.89 206.725 122.771 193.618 136.977C180.818 150.852 172.494 167.908 169.547 186.302C168.506 192.796 168.161 199.416 168.518 205.978C168.527 206.142 168.402 206.283 168.237 206.292C168.232 206.292 168.227 206.292 168.221 206.292Z" fill="white"/>
<path d="M31.2021 393.307C31.1923 393.307 31.1821 393.306 31.1719 393.305C25.1313 392.693 21.4515 390.197 20.2342 385.884C19.0086 381.543 20.8053 376.817 24.7054 374.125L44.686 360.333C44.8208 360.238 45.0062 360.273 45.0998 360.409C45.1931 360.544 45.1591 360.73 45.0237 360.823L25.0432 374.615C21.3532 377.163 19.6506 381.626 20.8069 385.723C21.9512 389.776 25.4586 392.127 31.2319 392.713C31.3955 392.729 31.5146 392.875 31.4981 393.039C31.4822 393.192 31.3529 393.307 31.2021 393.307Z" fill="white"/>
<path d="M51.0121 356.627C50.9176 356.627 50.8246 356.582 50.7669 356.498C50.6736 356.363 50.7076 356.177 50.8427 356.084L53.4324 354.296C53.5678 354.2 53.7529 354.236 53.8465 354.371C53.9398 354.507 53.9058 354.692 53.7707 354.785L51.181 356.574C51.1291 356.61 51.0702 356.627 51.0121 356.627Z" fill="white"/>
<path d="M76.5217 376.813L60.0208 380.942L64.1459 411.904C64.1459 411.904 57.9581 418.097 55.8955 426.354C53.8328 434.61 51.9311 469.279 51.9311 469.279L48.0157 471.648L47.5394 473.625L58.9307 488.953L57.0416 476.753C56.7418 474.817 57.2612 470.889 57.0977 470.807C63.2857 454.294 76.5217 407.776 76.5217 407.776V376.813Z" fill="url(#paint38_linear)"/>
<path d="M81.3432 473.837C81.1646 473.834 80.9892 473.848 80.8096 473.837C81.6069 463.882 85.2512 420.069 88.8976 403.648C93.0227 385.07 82.7097 347.915 82.7097 347.915L64.1458 366.493L74.459 401.583C67.3915 412.192 75.6118 474.322 75.4348 474.295L75.446 474.433L72.755 478.136L73.0823 480.144L89.5214 489.852L83.0532 479.34C82.0264 477.671 81.459 475.78 81.3432 473.837Z" fill="url(#paint39_linear)"/>
<path d="M60.4632 265.523C60.4632 265.523 24.3194 315.713 60.4632 341.447L64.1458 338.162C64.1458 338.162 46.2016 316.991 64.1458 291.074L60.4632 265.523Z" fill="url(#paint40_linear)"/>
<path d="M90.6043 491.375H85.3581C84.376 491.375 83.45 490.924 82.8511 490.145C81.2157 488.018 77.8275 483.869 76.207 483.761C74.0259 483.615 74.3049 491.375 74.3049 491.375H73.0823L71.5337 481.732C71.1442 479.306 72.3497 476.903 74.5266 475.766C74.5266 475.766 75.0252 479.456 77.7286 481.088C80.4319 482.721 88.7298 488.566 88.7298 488.566C88.7298 488.566 89.7462 488.421 90.862 488.622C92.5174 488.922 92.2863 491.375 90.6043 491.375Z" fill="url(#paint41_linear)"/>
<path d="M59.3384 490.776L54.5028 488.74C53.5978 488.359 52.9188 487.584 52.6686 486.634C51.9851 484.039 50.4697 478.9 49.0182 478.171C47.0644 477.19 44.3146 484.451 44.3146 484.451L43.1877 483.977L45.4966 474.488C46.0774 472.101 48.1201 470.353 50.567 470.15C50.567 470.15 49.5969 473.745 51.4562 476.299C53.3157 478.852 58.6993 487.46 58.6993 487.46C58.6993 487.46 59.6923 487.721 60.6428 488.34C62.0524 489.258 60.8889 491.429 59.3384 490.776Z" fill="url(#paint42_linear)"/>
<path d="M87.4371 316.503C87.4371 316.503 86.8303 320.224 87.7191 330.452C88.608 340.681 92.8564 364.696 91.9913 387.673C91.9913 387.673 79.9137 390.49 58.9306 389.156C58.9306 389.156 50.075 353.281 52.2325 339.643C54.3897 326.005 66.092 316.221 66.092 316.221L87.4371 316.503Z" fill="url(#paint43_linear)"/>
<path d="M78.5129 248.152L79.9892 265.523H65.9646L69.4517 239.008L78.5129 248.152Z" fill="url(#paint44_linear)"/>
<path d="M61.81 263.121C66.6501 262.854 77.4717 262.359 85.1381 262.778C89.1744 262.998 92.5556 265.896 93.3813 269.856L95.2512 278.823C95.9477 282.163 95.8436 285.621 94.9473 288.913L87.4369 316.503C87.4369 316.503 80.757 320.52 66.092 316.221C66.092 316.221 53.2132 285.487 58.4849 265.826C58.8947 264.299 60.2327 263.208 61.81 263.121Z" fill="url(#paint45_linear)"/>
<path d="M93.015 268.247C95.0807 273.693 96.9464 279.403 98.9509 284.751C99.9701 287.428 101.004 290.052 102.11 292.462C102.669 293.662 103.284 294.764 103.848 295.764C104.413 296.754 105.048 297.577 105.38 297.956C105.445 298.013 105.227 298.056 105.154 298.059C105.111 298.065 106.551 298.296 106.993 298.37L108.719 298.359C111.194 298.232 113.996 297.795 116.808 297.249C122.478 296.191 128.373 294.705 134.427 293.581L134.473 293.573C135.631 293.358 136.744 294.123 136.959 295.282C137.101 296.047 136.814 296.794 136.272 297.274C133.831 299.424 131.244 301.19 128.56 302.909C127.209 303.736 125.835 304.546 124.438 305.324C123.013 306.051 121.585 306.783 120.101 307.461C117.113 308.763 114.027 309.963 110.472 310.734C109.538 310.891 108.616 311.055 107.654 311.183C106.576 311.221 105.597 311.316 104.419 311.248C103.794 311.186 103.166 311.11 102.539 311.018C102.205 310.959 101.959 310.953 101.554 310.841C101.125 310.712 100.696 310.568 100.274 310.409C99.3909 310.092 98.8203 309.708 98.1032 309.309C97.5077 308.916 96.9647 308.505 96.4383 308.084C94.4945 306.427 93.2877 304.783 92.224 303.204C91.1632 301.627 90.3224 300.047 89.5676 298.498C88.0537 295.405 86.8713 292.339 85.9123 289.253C83.9683 283.067 82.6512 276.988 82.0953 270.531C81.8291 267.439 84.1186 264.715 87.2093 264.449C89.7672 264.228 92.0721 265.76 92.9415 268.048L93.015 268.247Z" fill="url(#paint46_linear)"/>
<path d="M132.521 296.357L135.024 290.412L148.196 287.127C148.196 287.127 149.249 289.412 143.717 290.412C143.717 290.412 145.693 292.598 144.639 295.168C143.585 297.739 132.389 300.314 132.521 296.357Z" fill="url(#paint47_linear)"/>
<path d="M84.4509 228.091C84.9517 228.387 88.8973 242.313 85.591 248.152C82.2848 253.991 72.1879 247.451 69.4518 239.008C66.7156 230.565 71.1117 220.219 84.4509 228.091Z" fill="url(#paint48_linear)"/>
<path d="M58.2824 239.008C56.0177 250.112 48.5138 247.073 43.1992 252.013C34.5855 260.02 22.263 251.766 10.2836 259.354C1.63538 264.831 -2.53141 278.845 1.61867 290.16C7.36699 305.831 27.0106 312.275 37.1905 307.503C46.9194 302.941 45.5341 289.279 58.6244 283.999C64.1818 281.757 66.9253 283.214 70.2535 279.891C76.08 274.075 74.5078 262.789 73.902 258.441C72.5878 249.007 69.4268 247.299 70.9376 243.152C73.8758 235.088 87.5812 236.752 88.7234 231.058C89.7634 225.873 79.8296 216.046 70.4816 217.595C56.0177 219.991 59.2912 234.061 58.2824 239.008Z" fill="url(#paint49_linear)"/>
<path opacity="0.6" d="M5.93805 287.506C5.76651 287.506 5.61203 287.39 5.56981 287.216C3.71786 279.522 4.55797 273.213 8.06816 268.462C13.8928 260.578 25.2134 259.797 25.3272 259.791C25.5054 259.761 25.7148 259.936 25.728 260.146C25.7407 260.355 25.5823 260.534 25.3731 260.547C25.2628 260.554 14.2848 261.316 8.67375 268.917C5.30572 273.478 4.50924 279.575 6.30629 287.038C6.3552 287.241 6.23029 287.446 6.02672 287.495C5.99734 287.502 5.9669 287.506 5.93805 287.506Z" fill="white"/>
<path opacity="0.72" d="M43.0154 294.549C42.9999 294.549 42.9835 294.547 42.9674 294.543C42.8667 294.516 42.806 294.413 42.8319 294.311C44.6358 287.386 47.801 282.575 52.2387 280.014C55.4667 278.15 58.4901 277.977 61.1568 277.824C63.7285 277.676 65.9492 277.548 67.7368 275.957C71.4317 272.669 71.2178 264.763 67.1008 252.459C67.0675 252.36 67.1215 252.253 67.2206 252.219C67.3205 252.186 67.427 252.24 67.4602 252.339C71.6298 264.8 71.8074 272.842 67.9882 276.24C66.1025 277.919 63.8209 278.051 61.1784 278.202C58.5538 278.353 55.5784 278.524 52.4277 280.343C48.0814 282.851 44.9761 287.583 43.1989 294.408C43.1766 294.493 43.0997 294.549 43.0154 294.549Z" fill="white"/>
<path opacity="0.72" d="M63.6403 236.252C63.6204 236.252 63.6004 236.249 63.5796 236.243C63.4804 236.209 63.4273 236.102 63.4607 236.002C64.8944 231.733 69.0258 232.368 73.4032 233.041C76.1736 233.468 79.0377 233.906 81.4675 233.187C83.2802 232.649 84.3569 231.815 84.6682 230.709C85.2001 228.825 83.3377 226.725 83.3193 226.704C83.2491 226.626 83.2557 226.506 83.3333 226.437C83.4102 226.366 83.5309 226.373 83.6004 226.451C83.6831 226.542 85.6202 228.725 85.0336 230.811C84.6845 232.051 83.5212 232.973 81.5755 233.55C79.0632 234.294 76.1574 233.848 73.3457 233.416C68.9518 232.741 65.1529 232.155 63.8201 236.124C63.7934 236.203 63.7193 236.252 63.6403 236.252Z" fill="white"/>
<path d="M379.198 485.049C396.172 488.445 417.849 469.925 424.832 449.692C432.018 428.871 418.842 420.149 418.944 391.256C419.059 358.435 436.119 353.489 447.404 309.25C449.95 299.268 464.684 241.507 446.423 230.68C429.538 220.67 382.112 249.399 373.8 286.17C367.873 312.389 386.195 323.398 379.198 353.936C373.058 380.731 356.92 381.119 350.737 406.97C343.21 438.443 356.91 480.589 379.198 485.049Z" fill="url(#paint50_linear)"/>
<path d="M380.43 493C375.854 457.638 384.781 403.083 393.075 363.544C402.055 320.737 412.247 285.819 412.349 285.471L413.762 285.886C413.66 286.233 403.482 321.104 394.513 363.858C386.244 403.282 377.341 457.656 381.89 492.811L380.43 493Z" fill="url(#paint51_linear)"/>
<path d="M408.164 480.157C388.282 469.79 381.477 434.191 392.778 422.621C400.414 414.804 411.365 423.026 421.93 414.923C435.418 404.576 425.496 385.09 436.1 359.818C445.125 338.311 466.773 317.961 479.423 322.136C492.664 326.507 499.639 358.938 488.33 378.456C480.976 391.149 469.718 391.772 467.276 403.577C464.442 417.275 478.133 423.522 478.208 436.802C478.342 460.657 434.466 493.872 408.164 480.157Z" fill="url(#paint52_linear)"/>
<path d="M418.892 489.274C418.773 489.274 418.653 489.248 418.539 489.192C418.137 488.997 417.969 488.512 418.164 488.109C444.522 433.756 452.251 370.702 452.326 370.071C452.379 369.626 452.782 369.309 453.226 369.362C453.67 369.415 453.987 369.818 453.934 370.263C453.859 370.896 446.097 434.221 419.621 488.817C419.481 489.106 419.193 489.274 418.892 489.274Z" fill="url(#paint53_linear)"/>
<path d="M472.969 386.609C472.841 386.609 472.712 386.567 472.603 386.483C472.344 386.28 472.297 385.907 472.499 385.647C480.775 375.017 489.955 359.05 486.696 343.349C484.753 333.983 479.207 329.071 479.151 329.023C478.903 328.807 478.877 328.431 479.092 328.182C479.307 327.935 479.683 327.907 479.931 328.123C480.17 328.329 485.802 333.299 487.846 343.03C489.721 351.954 488.743 366.719 473.439 386.379C473.321 386.53 473.146 386.609 472.969 386.609Z" fill="#F0F0F0"/>
<path d="M406.371 475.619C406.181 475.619 405.995 475.528 405.88 475.36C393.051 456.623 388.685 442.127 392.901 432.274C396.668 423.471 405.885 421.881 406.275 421.818C406.602 421.768 406.905 421.986 406.958 422.31C407.011 422.635 406.79 422.941 406.466 422.994C406.377 423.009 397.49 424.557 393.99 432.758C390.011 442.078 394.462 456.576 406.861 474.686C407.047 474.958 406.978 475.328 406.707 475.515C406.604 475.585 406.487 475.619 406.371 475.619Z" fill="#F0F0F0"/>
</g>
<defs>
<linearGradient id="paint0_linear" x1="524.57" y1="494.159" x2="170.43" y2="184.518" gradientUnits="userSpaceOnUse">
<stop stop-color="#B37CFF"/>
<stop offset="1" stop-color="#F895E7"/>
</linearGradient>
<linearGradient id="paint1_linear" x1="104.297" y1="82.6267" x2="142.014" y2="100.281" gradientUnits="userSpaceOnUse">
<stop stop-color="#B37CFF"/>
<stop offset="1" stop-color="#F895E7"/>
</linearGradient>
<linearGradient id="paint2_linear" x1="122.943" y1="28.0043" x2="121.379" y2="22.6841" gradientUnits="userSpaceOnUse">
<stop stop-color="#B37CFF"/>
<stop offset="1" stop-color="#F895E7"/>
</linearGradient>
<linearGradient id="paint3_linear" x1="74.2077" y1="12.3308" x2="73.1343" y2="8.67993" gradientUnits="userSpaceOnUse">
<stop stop-color="#B37CFF"/>
<stop offset="1" stop-color="#F895E7"/>
</linearGradient>
<linearGradient id="paint4_linear" x1="18.0286" y1="51.6785" x2="58.3762" y2="70.564" gradientUnits="userSpaceOnUse">
<stop stop-color="#B37CFF"/>
<stop offset="1" stop-color="#F895E7"/>
</linearGradient>
<linearGradient id="paint5_linear" x1="41.9347" y1="129.107" x2="40.3904" y2="123.854" gradientUnits="userSpaceOnUse">
<stop stop-color="#B37CFF"/>
<stop offset="1" stop-color="#F895E7"/>
</linearGradient>
<linearGradient id="paint6_linear" x1="27.1138" y1="-189.528" x2="151.104" y2="418.109" gradientUnits="userSpaceOnUse">
<stop stop-color="#A737D5"/>
<stop offset="1" stop-color="#EF497A"/>
</linearGradient>
<linearGradient id="paint7_linear" x1="67.0952" y1="207.075" x2="66.3318" y2="204.478" gradientUnits="userSpaceOnUse">
<stop stop-color="#B37CFF"/>
<stop offset="1" stop-color="#F895E7"/>
</linearGradient>
<linearGradient id="paint8_linear" x1="87.0512" y1="173.285" x2="105.303" y2="181.828" gradientUnits="userSpaceOnUse">
<stop stop-color="#B37CFF"/>
<stop offset="1" stop-color="#F895E7"/>
</linearGradient>
<linearGradient id="paint9_linear" x1="20.1089" y1="154.546" x2="46.825" y2="167.051" gradientUnits="userSpaceOnUse">
<stop stop-color="#B37CFF"/>
<stop offset="1" stop-color="#F895E7"/>
</linearGradient>
<linearGradient id="paint10_linear" x1="39.3768" y1="198.629" x2="38.2089" y2="194.656" gradientUnits="userSpaceOnUse">
<stop stop-color="#B37CFF"/>
<stop offset="1" stop-color="#F895E7"/>
</linearGradient>
<linearGradient id="paint11_linear" x1="-3.61159" y1="-178.055" x2="120.379" y2="429.581" gradientUnits="userSpaceOnUse">
<stop stop-color="#A737D5"/>
<stop offset="1" stop-color="#EF497A"/>
</linearGradient>
<linearGradient id="paint12_linear" x1="99.0448" y1="240.963" x2="436.011" y2="240.963" gradientUnits="userSpaceOnUse">
<stop stop-color="#2B3582"/>
<stop offset="1" stop-color="#150E42"/>
</linearGradient>
<linearGradient id="paint13_linear" x1="350.919" y1="121.113" x2="-317.329" y2="975.332" gradientUnits="userSpaceOnUse">
<stop stop-color="#FDF53F"/>
<stop offset="0.6645" stop-color="#E57A58"/>
<stop offset="1" stop-color="#D93C65"/>
</linearGradient>
<linearGradient id="paint14_linear" x1="269.275" y1="415.692" x2="162.299" y2="798.42" gradientUnits="userSpaceOnUse">
<stop stop-color="#2B3582"/>
<stop offset="0.0933" stop-color="#29317C"/>
<stop offset="1" stop-color="#150E42"/>
</linearGradient>
<linearGradient id="paint15_linear" x1="127.362" y1="36.5647" x2="264.144" y2="223.064" gradientUnits="userSpaceOnUse">
<stop stop-color="#53D8FF"/>
<stop offset="1" stop-color="#3840F7"/>
</linearGradient>
<linearGradient id="paint16_linear" x1="177.338" y1="85.299" x2="362.519" y2="394.712" gradientUnits="userSpaceOnUse">
<stop stop-color="#53D8FF"/>
<stop offset="1" stop-color="#3840F7"/>
</linearGradient>
<linearGradient id="paint17_linear" x1="217.816" y1="54.7181" x2="208.8" y2="226.131" gradientUnits="userSpaceOnUse">
<stop stop-color="#53D8FF"/>
<stop offset="1" stop-color="#3840F7"/>
</linearGradient>
<linearGradient id="paint18_linear" x1="179.212" y1="177.302" x2="258.872" y2="180.018" gradientUnits="userSpaceOnUse">
<stop stop-color="#53D8FF"/>
<stop offset="1" stop-color="#3840F7"/>
</linearGradient>
<linearGradient id="paint19_linear" x1="180.555" y1="197.429" x2="258.34" y2="200.081" gradientUnits="userSpaceOnUse">
<stop stop-color="#53D8FF"/>
<stop offset="1" stop-color="#3840F7"/>
</linearGradient>
<linearGradient id="paint20_linear" x1="181.141" y1="214.328" x2="260.854" y2="217.046" gradientUnits="userSpaceOnUse">
<stop stop-color="#53D8FF"/>
<stop offset="1" stop-color="#3840F7"/>
</linearGradient>
<linearGradient id="paint21_linear" x1="433.518" y1="130.39" x2="346.607" y2="143.575" gradientUnits="userSpaceOnUse">
<stop stop-color="#53D8FF"/>
<stop offset="1" stop-color="#3840F7"/>
</linearGradient>
<linearGradient id="paint22_linear" x1="285.78" y1="178.786" x2="631.14" y2="-63.0866" gradientUnits="userSpaceOnUse">
<stop stop-color="#53D8FF"/>
<stop offset="1" stop-color="#3840F7"/>
</linearGradient>
<linearGradient id="paint23_linear" x1="329.265" y1="60.5872" x2="320.249" y2="231.996" gradientUnits="userSpaceOnUse">
<stop stop-color="#53D8FF"/>
<stop offset="1" stop-color="#3840F7"/>
</linearGradient>
<linearGradient id="paint24_linear" x1="286.134" y1="201.602" x2="369.771" y2="204.453" gradientUnits="userSpaceOnUse">
<stop stop-color="#53D8FF"/>
<stop offset="1" stop-color="#3840F7"/>
</linearGradient>
<linearGradient id="paint25_linear" x1="285.506" y1="217.944" x2="369.287" y2="220.8" gradientUnits="userSpaceOnUse">
<stop stop-color="#53D8FF"/>
<stop offset="1" stop-color="#3840F7"/>
</linearGradient>
<linearGradient id="paint26_linear" x1="95.3554" y1="266.087" x2="158.941" y2="300.528" gradientUnits="userSpaceOnUse">
<stop stop-color="#A737D5"/>
<stop offset="1" stop-color="#EF497A"/>
</linearGradient>
<linearGradient id="paint27_linear" x1="111.155" y1="212.527" x2="202.27" y2="259.963" gradientUnits="userSpaceOnUse">
<stop stop-color="#A737D5"/>
<stop offset="1" stop-color="#EF497A"/>
</linearGradient>
<linearGradient id="paint28_linear" x1="274.266" y1="263.071" x2="462.91" y2="359.431" gradientUnits="userSpaceOnUse">
<stop stop-color="#CB236D"/>
<stop offset="1" stop-color="#4C246D"/>
</linearGradient>
<linearGradient id="paint29_linear" x1="155.571" y1="200.885" x2="439.336" y2="340.946" gradientUnits="userSpaceOnUse">
<stop stop-color="#CB236D"/>
<stop offset="1" stop-color="#4C246D"/>
</linearGradient>
<linearGradient id="paint30_linear" x1="141.598" y1="235.85" x2="202.344" y2="266.724" gradientUnits="userSpaceOnUse">
<stop stop-color="#FDF53F"/>
<stop offset="1" stop-color="#D93C65"/>
</linearGradient>
<linearGradient id="paint31_linear" x1="154.713" y1="227.698" x2="210.137" y2="255.866" gradientUnits="userSpaceOnUse">
<stop stop-color="#FDF53F"/>
<stop offset="1" stop-color="#D93C65"/>
</linearGradient>
<linearGradient id="paint32_linear" x1="163.177" y1="328.902" x2="303.982" y2="409.114" gradientUnits="userSpaceOnUse">
<stop stop-color="#CB236D"/>
<stop offset="1" stop-color="#4C246D"/>
</linearGradient>
<linearGradient id="paint33_linear" x1="266.352" y1="249.402" x2="264.119" y2="396.679" gradientUnits="userSpaceOnUse">
<stop stop-color="#A737D5"/>
<stop offset="1" stop-color="#EF497A"/>
</linearGradient>
<linearGradient id="paint34_linear" x1="306.024" y1="277.768" x2="216.573" y2="547.339" gradientUnits="userSpaceOnUse">
<stop stop-color="#CB236D"/>
<stop offset="1" stop-color="#4C246D"/>
</linearGradient>
<linearGradient id="paint35_linear" x1="324.286" y1="342.388" x2="234.835" y2="611.96" gradientUnits="userSpaceOnUse">
<stop stop-color="#CB236D"/>
<stop offset="1" stop-color="#4C246D"/>
</linearGradient>
<linearGradient id="paint36_linear" x1="8.22397" y1="353.183" x2="205.392" y2="306.62" gradientUnits="userSpaceOnUse">
<stop stop-color="#2B3582"/>
<stop offset="1" stop-color="#150E42"/>
</linearGradient>
<linearGradient id="paint37_linear" x1="161.684" y1="189.088" x2="367.034" y2="211.379" gradientUnits="userSpaceOnUse">
<stop stop-color="#2B3582"/>
<stop offset="1" stop-color="#150E42"/>
</linearGradient>
<linearGradient id="paint38_linear" x1="39.5724" y1="486.223" x2="86.2183" y2="366.23" gradientUnits="userSpaceOnUse">
<stop stop-color="#F9B776"/>
<stop offset="1" stop-color="#F47960"/>
</linearGradient>
<linearGradient id="paint39_linear" x1="38.8647" y1="872.266" x2="193.065" y2="-928.605" gradientUnits="userSpaceOnUse">
<stop stop-color="#F9B776"/>
<stop offset="1" stop-color="#F47960"/>
</linearGradient>
<linearGradient id="paint40_linear" x1="44.3993" y1="303.485" x2="64.1459" y2="303.485" gradientUnits="userSpaceOnUse">
<stop stop-color="#F9B776"/>
<stop offset="1" stop-color="#F47960"/>
</linearGradient>
<linearGradient id="paint41_linear" x1="60.4845" y1="453.125" x2="77.7827" y2="482.378" gradientUnits="userSpaceOnUse">
<stop stop-color="#53D8FF"/>
<stop offset="1" stop-color="#3840F7"/>
</linearGradient>
<linearGradient id="paint42_linear" x1="46.3968" y1="443.832" x2="50.9912" y2="477.51" gradientUnits="userSpaceOnUse">
<stop stop-color="#53D8FF"/>
<stop offset="1" stop-color="#3840F7"/>
</linearGradient>
<linearGradient id="paint43_linear" x1="97.7522" y1="302.454" x2="52.8324" y2="407.456" gradientUnits="userSpaceOnUse">
<stop stop-color="#CB236D"/>
<stop offset="1" stop-color="#4C246D"/>
</linearGradient>
<linearGradient id="paint44_linear" x1="65.9645" y1="252.265" x2="79.9892" y2="252.265" gradientUnits="userSpaceOnUse">
<stop stop-color="#F9B776"/>
<stop offset="1" stop-color="#F47960"/>
</linearGradient>
<linearGradient id="paint45_linear" x1="91.2321" y1="267.472" x2="16.898" y2="362.764" gradientUnits="userSpaceOnUse">
<stop stop-color="#53D8FF"/>
<stop offset="1" stop-color="#3840F7"/>
</linearGradient>
<linearGradient id="paint46_linear" x1="148.249" y1="260.267" x2="26.909" y2="329.729" gradientUnits="userSpaceOnUse">
<stop stop-color="#F9B776"/>
<stop offset="1" stop-color="#F47960"/>
</linearGradient>
<linearGradient id="paint47_linear" x1="160.301" y1="281.32" x2="38.9612" y2="350.782" gradientUnits="userSpaceOnUse">
<stop stop-color="#F9B776"/>
<stop offset="1" stop-color="#F47960"/>
</linearGradient>
<linearGradient id="paint48_linear" x1="89.3234" y1="252.26" x2="62.0423" y2="212.397" gradientUnits="userSpaceOnUse">
<stop stop-color="#F9B776"/>
<stop offset="1" stop-color="#F47960"/>
</linearGradient>
<linearGradient id="paint49_linear" x1="1.80763e-05" y1="263.238" x2="88.7987" y2="263.238" gradientUnits="userSpaceOnUse">
<stop stop-color="#2B3582"/>
<stop offset="1" stop-color="#150E42"/>
</linearGradient>
<linearGradient id="paint50_linear" x1="362.749" y1="535.916" x2="424.624" y2="253.269" gradientUnits="userSpaceOnUse">
<stop stop-color="#B37CFF"/>
<stop offset="1" stop-color="#F895E7"/>
</linearGradient>
<linearGradient id="paint51_linear" x1="669.125" y1="43.2104" x2="68.5208" y2="805.91" gradientUnits="userSpaceOnUse">
<stop stop-color="#A737D5"/>
<stop offset="1" stop-color="#EF497A"/>
</linearGradient>
<linearGradient id="paint52_linear" x1="437.419" y1="311.564" x2="445.764" y2="531.963" gradientUnits="userSpaceOnUse">
<stop stop-color="#B37CFF"/>
<stop offset="1" stop-color="#F895E7"/>
</linearGradient>
<linearGradient id="paint53_linear" x1="712.656" y1="77.4872" x2="112.053" y2="840.191" gradientUnits="userSpaceOnUse">
<stop stop-color="#A737D5"/>
<stop offset="1" stop-color="#EF497A"/>
</linearGradient>
<clipPath id="clip0">
<rect width="494" height="493" fill="white"/>
</clipPath>
</defs>
</svg>
