<svg id="Capa_1" enable-background="new 0 0 512 512" height="512" viewBox="0 0 512 512" width="512" xmlns="http://www.w3.org/2000/svg" xmlns:xlink="http://www.w3.org/1999/xlink"><linearGradient id="SVGID_1_" gradientUnits="userSpaceOnUse" x1="74.98" x2="437.018" y1="437.018" y2="74.979"><stop offset="0" stop-color="#ff2f2b"/><stop offset="1" stop-color="#ff9ceb"/></linearGradient><radialGradient id="SVGID_2_" cx="257.013" cy="207.323" gradientUnits="userSpaceOnUse" r="308.271"><stop offset="0" stop-color="#ff2f2b"/><stop offset=".0935" stop-color="#ff414b" stop-opacity=".907"/><stop offset=".2552" stop-color="#ff5c7b" stop-opacity=".745"/><stop offset=".4161" stop-color="#ff73a3" stop-opacity=".584"/><stop offset=".5732" stop-color="#ff85c3" stop-opacity=".427"/><stop offset=".7252" stop-color="#ff92d9" stop-opacity=".275"/><stop offset=".87" stop-color="#ff99e6" stop-opacity=".13"/><stop offset="1" stop-color="#ff9ceb" stop-opacity="0"/></radialGradient><linearGradient id="lg1"><stop offset="0" stop-color="#ff91bb"/><stop offset=".2229" stop-color="#ffb0ce"/><stop offset=".5688" stop-color="#ffdbe9"/><stop offset=".8396" stop-color="#fff5f9"/><stop offset="1" stop-color="#fff"/></linearGradient><linearGradient id="SVGID_3_" gradientUnits="userSpaceOnUse" x1="132.652" x2="528.026" xlink:href="#lg1" y1="365.523" y2="-29.85"/><linearGradient id="lg2"><stop offset="0" stop-color="#ffb5d3"/><stop offset=".4183" stop-color="#ffdbea"/><stop offset=".7836" stop-color="#fff5f9"/><stop offset="1" stop-color="#fff"/></linearGradient><linearGradient id="SVGID_4_" gradientUnits="userSpaceOnUse" x1="181.868" x2="411.548" xlink:href="#lg2" y1="532.717" y2="303.037"/><linearGradient id="SVGID_5_" gradientUnits="userSpaceOnUse" x1="185.185" x2="483.733" xlink:href="#lg2" y1="510.965" y2="212.417"/><linearGradient id="SVGID_6_" gradientUnits="userSpaceOnUse" x1="-2.947" x2="254.534" xlink:href="#lg2" y1="513.539" y2="256.058"/><linearGradient id="SVGID_7_" gradientUnits="userSpaceOnUse" x1="43.89" x2="332.427" xlink:href="#lg2" y1="447.405" y2="158.868"/><linearGradient id="SVGID_8_" gradientUnits="userSpaceOnUse" x1="7.869" x2="551.173" xlink:href="#lg1" y1="595.216" y2="51.912"/><linearGradient id="SVGID_9_" gradientUnits="userSpaceOnUse" x1="11.719" x2="454.957" xlink:href="#lg1" y1="365.354" y2="-77.884"/><linearGradient id="SVGID_10_" gradientUnits="userSpaceOnUse" x1="-44.51" x2="567.69" xlink:href="#lg1" y1="535.599" y2="-76.601"/><g><circle cx="256" cy="256" fill="url(#SVGID_1_)" r="256"/><circle cx="256" cy="256" fill="url(#SVGID_2_)" r="256"/><path d="m171.478 206.774c-.077 23.634-.044 47.269.101 70.904 10.233.053 20.466.096 30.698.13-.033-8.476 6.827-15.328 15.314-15.317 25.606.04 51.212.04 76.817 0 8.487-.011 15.348 6.843 15.314 15.317 10.233-.034 20.466-.077 30.699-.13.145-23.634.178-47.269.101-70.904-56.348-.156-112.696-.156-169.044 0z" fill="url(#SVGID_3_)"/><path d="m363.544 262.285c-.253 48.317-1.101 96.634-2.544 144.951 10-.257 20-.55 30-.88 8.272-.278 15.288-7.309 15.623-15.659 1.09-27.75 1.896-55.499 2.415-83.249-15.02-14.897-30.21-29.973-45.494-45.163z" fill="url(#SVGID_4_)"/><path d="m376.498 391.601c1.348-43.129 2.151-86.259 2.409-129.388-23.137 15.338-46.29 30.815-69.344 46.286-.182 28.134-.464 56.268-.845 84.401-.109 8.475 6.503 15.263 14.782 15.126 12.5-.206 25-.469 37.5-.791 8.272-.215 15.229-7.236 15.498-15.634z" fill="url(#SVGID_5_)"/><path d="m188.5 408.026c8.278.138 14.891-6.651 14.782-15.126-.382-28.134-.663-56.268-.845-84.401-15.403-15.43-30.862-30.845-46.299-46.182.235 48.368 1.023 96.736 2.363 145.104 0 .015 21.718.49 29.999.605z" fill="url(#SVGID_6_)"/><path d="m105.377 390.697c.334 8.354 7.346 15.379 15.623 15.659 12.5.412 25 .767 37.5 1.065 8.279.202 14.83-6.519 14.657-14.973-.927-43.358-1.479-86.715-1.657-130.073-22.983 15.223-45.867 30.296-68.539 45.073.521 27.75 1.326 55.499 2.416 83.249z" fill="url(#SVGID_7_)"/><path d="m442.996 205.166c-28.975-23.46-58.111-47.381-87.065-71.414 8.283 58.224 15.96 116.286 22.499 174.128 10.202-.128 20.405-.271 30.608-.431.473-25.228.71-50.455.712-75.682 7.852 0 15.703-.001 23.555-.001 14.422-.029 20.882-17.566 9.691-26.6z" fill="url(#SVGID_8_)"/><path d="m69.004 205.166c-11.191 9.033-4.732 26.572 9.692 26.599 7.852 0 15.703.001 23.555.001.002 25.228.239 50.455.712 75.682 22.956.359 45.911.638 68.867.835 7.142-25.441 14.483-50.954 21.919-76.513-.001-43.375.272-86.749.821-130.124-41.504 34.766-83.703 69.625-125.566 103.52z" fill="url(#SVGID_9_)"/><path d="m355.931 133.752c-30.455-25.278-60.709-50.68-90.364-75.797-2.784-2.356-6.174-3.536-9.568-3.537-3.392 0-6.787 1.179-9.568 3.537-17.113 14.495-34.427 29.085-51.864 43.691-14.088 11.811-22.479 29.212-22.68 47.454-.581 53.061-.601 106.122-.06 159.183 10.203.088 20.405.159 30.608.216-.165-25.576-.248-51.152-.249-76.729 0-8.473 6.892-15.351 15.382-15.36 25.62-.02 51.241-.02 76.861 0 8.49.007 15.381 6.887 15.382 15.36-.001 25.576-.084 51.153-.249 76.729 22.956-.126 45.911-.332 68.867-.62.631-42.293.738-84.586.321-126.879-.178-18.146-8.616-35.45-22.819-47.248z" fill="url(#SVGID_10_)"/></g></svg>