<svg id="Capa_1" enable-background="new 0 0 512 512" height="512" viewBox="0 0 512 512" width="512" xmlns="http://www.w3.org/2000/svg" xmlns:xlink="http://www.w3.org/1999/xlink"><linearGradient id="SVGID_1_" gradientUnits="userSpaceOnUse" x1="74.98" x2="437.019" y1="437.019" y2="74.98"><stop offset="0" stop-color="#ff4747"/><stop offset="1" stop-color="#fffa78"/></linearGradient><radialGradient id="SVGID_2_" cx="278.309" cy="235.717" gradientUnits="userSpaceOnUse" r="285.007"><stop offset="0" stop-color="#ff4747" stop-opacity=".6"/><stop offset=".1062" stop-color="#ff6c38" stop-opacity=".536"/><stop offset=".2445" stop-color="#ff9527" stop-opacity=".453"/><stop offset=".3865" stop-color="#ffb719" stop-opacity=".368"/><stop offset=".531" stop-color="#ffd10e" stop-opacity=".281"/><stop offset=".679" stop-color="#ffe306" stop-opacity=".193"/><stop offset=".8324" stop-color="#ffee02" stop-opacity=".101"/><stop offset="1" stop-color="#fff200" stop-opacity="0"/></radialGradient><linearGradient id="lg1"><stop offset="0" stop-color="#ffcb00"/><stop offset=".5" stop-color="#fffa78"/><stop offset="1" stop-color="#feffd6"/></linearGradient><linearGradient id="SVGID_3_" gradientUnits="userSpaceOnUse" x1="-18.737" x2="851.169" xlink:href="#lg1" y1="531.555" y2="-338.351"/><linearGradient id="SVGID_4_" gradientUnits="userSpaceOnUse" x1="-242.586" x2="1023.712" xlink:href="#lg1" y1="747.226" y2="-519.072"/><linearGradient id="lg2"><stop offset="0" stop-color="#ff4747"/><stop offset="1" stop-color="#fff200"/></linearGradient><linearGradient id="SVGID_5_" gradientUnits="userSpaceOnUse" x1="50.834" x2="457.011" xlink:href="#lg2" y1="464.386" y2="58.208"/><linearGradient id="SVGID_6_" gradientUnits="userSpaceOnUse" x1="49.356" x2="458.287" xlink:href="#lg2" y1="386.106" y2="-22.825"/><linearGradient id="SVGID_7_" gradientUnits="userSpaceOnUse" x1="56.668" x2="465.46" xlink:href="#lg2" y1="512.295" y2="103.503"/><linearGradient id="SVGID_8_" gradientUnits="userSpaceOnUse" x1="68.003" x2="476.932" xlink:href="#lg2" y1="420.962" y2="12.034"/><linearGradient id="SVGID_9_" gradientUnits="userSpaceOnUse" x1="63.953" x2="474.092" xlink:href="#lg2" y1="558.489" y2="148.349"/><linearGradient id="SVGID_10_" gradientUnits="userSpaceOnUse" x1="78.092" x2="485.438" xlink:href="#lg2" y1="464.482" y2="57.136"/><g><circle cx="256" cy="256" fill="url(#SVGID_1_)" r="256"/><circle cx="256" cy="256" fill="url(#SVGID_2_)" r="256"/><path d="m140.273 126.361c-44.605 55.345-51.376 127.095-18.789 187.091 3.905 7.267 4.713 15.692 2.325 23.306-5.313 16.938-10.466 33.795-15.422 50.557-1.089 3.68-.463 7.865 1.95 11.193 3.36 4.631 9.063 6.667 14.021 5.202 16.87-4.986 33.836-10.171 50.885-15.519 7.613-2.387 16.036-1.579 23.302 2.323 65.851 35.919 146.134 23.907 202.876-32.933 16.283-16.289 28.994-34.686 37.904-54.094-98.858-57.046-201.084-120.334-299.052-177.126z" fill="url(#SVGID_3_)"/><path d="m300.638 372.379c55.408-.264 105.576-28.085 138.687-68.892 29.798-63.918 15.983-139.269-38.175-193.179-70.326-70.751-176.536-70.613-246.732.273-5.065 5.065-9.779 10.339-14.144 15.78-9.943 21.612-15.698 45.221-15.926 69.972-.592 94.966 80.909 176.139 176.29 176.046z" fill="url(#SVGID_4_)"/><path d="m354.508 165.212c-15.318-.128-30.635-.217-45.953-.268.034 10.242.06 20.485.079 30.727 15.357.029 30.715.078 46.072.149 8.483.035 15.323-6.764 15.255-15.195s-6.995-15.34-15.453-15.413z" fill="url(#SVGID_5_)"/><path d="m323.941 180.357c-.034-8.476-6.929-15.384-15.386-15.413-35.741-.119-71.482-.03-107.223.268-8.458.074-15.385 6.982-15.454 15.413-.068 8.431 6.773 15.23 15.255 15.195 35.833-.165 71.667-.215 107.501-.149 8.483.014 15.341-6.838 15.307-15.314z" fill="url(#SVGID_6_)"/><path d="m354.781 218.776c-15.372-.028-30.745-.048-46.116-.059.007 10.242.007 20.485 0 30.727 15.372-.011 30.744-.031 46.117-.06 8.488-.019 15.389-6.873 15.389-15.304-.001-8.432-6.901-15.284-15.39-15.304z" fill="url(#SVGID_7_)"/><path d="m324.045 234.08c-.001-8.475-6.892-15.356-15.381-15.364-35.868-.026-71.737-.007-107.605.06-8.489.019-15.39 6.872-15.389 15.304.001 8.431 6.899 15.285 15.389 15.304 35.868.066 71.737.086 107.605.06 8.489-.008 15.381-6.888 15.381-15.364z" fill="url(#SVGID_8_)"/><path d="m354.707 272.341c-15.357.071-30.715.121-46.072.149-.019 10.242-.045 20.485-.079 30.727 15.318-.051 30.635-.14 45.953-.268 8.457-.073 15.386-6.982 15.454-15.413.067-8.432-6.774-15.231-15.256-15.195z" fill="url(#SVGID_9_)"/><path d="m323.941 287.804c.035-8.476-6.824-15.328-15.306-15.314-35.833.066-71.667.017-107.501-.149-8.483-.036-15.323 6.763-15.255 15.195.067 8.431 6.997 15.34 15.454 15.413 35.741.298 71.482.387 107.223.268 8.457-.03 15.35-6.938 15.385-15.413z" fill="url(#SVGID_10_)"/></g></svg>